<svg width="1200" height="520" viewBox="0 0 1200 520" fill="none" xmlns="http://www.w3.org/2000/svg">
  <rect width="1200" height="520" rx="28" fill="#070B14"/>
  <rect x="1" y="1" width="1198" height="518" rx="27" stroke="#243047" stroke-width="2"/>
  <text x="60" y="82" fill="#F6F8FF" font-family="Inter, Arial, sans-serif" font-size="46" font-weight="800">DETERMA Runtime</text>
  <text x="60" y="122" fill="#AEB9D6" font-family="Inter, Arial, sans-serif" font-size="22">Deterministic governed execution for autonomous AI systems</text>

  <g transform="translate(70,190)">
    <rect width="170" height="82" rx="18" fill="#121B2F" stroke="#344563"/>
    <text x="85" y="36" text-anchor="middle" fill="#F6F8FF" font-family="Inter, Arial" font-size="18" font-weight="700">AI Agent</text>
    <text x="85" y="60" text-anchor="middle" fill="#8EA0C5" font-family="Inter, Arial" font-size="13">proposes action</text>
  </g>

  <path d="M260 231 H345" stroke="#5E6B86" stroke-width="3" stroke-linecap="round"/>
  <path d="M345 231 L332 221 V241 L345 231Z" fill="#5E6B86"/>

  <g transform="translate(365,190)">
    <rect width="190" height="82" rx="18" fill="#171728" stroke="#5A4D17"/>
    <text x="95" y="35" text-anchor="middle" fill="#FFE38A" font-family="Inter, Arial" font-size="18" font-weight="700">Authority</text>
    <text x="95" y="60" text-anchor="middle" fill="#B9A95F" font-family="Inter, Arial" font-size="13">explicit approval</text>
  </g>

  <path d="M575 231 H660" stroke="#5E6B86" stroke-width="3" stroke-linecap="round"/>
  <path d="M660 231 L647 221 V241 L660 231Z" fill="#5E6B86"/>

  <g transform="translate(680,170)">
    <rect width="215" height="122" rx="20" fill="#0E1F1A" stroke="#2AD887" stroke-width="2"/>
    <text x="108" y="40" text-anchor="middle" fill="#7CFFB2" font-family="Inter, Arial" font-size="20" font-weight="800">DETERMA</text>
    <text x="108" y="66" text-anchor="middle" fill="#C8FBDD" font-family="Inter, Arial" font-size="15">execution boundary</text>
    <text x="108" y="94" text-anchor="middle" fill="#82D9AD" font-family="Inter, Arial" font-size="13">single-use capability</text>
  </g>

  <path d="M915 231 H1000" stroke="#5E6B86" stroke-width="3" stroke-linecap="round"/>
  <path d="M1000 231 L987 221 V241 L1000 231Z" fill="#5E6B86"/>

  <g transform="translate(1020,190)">
    <rect width="150" height="82" rx="18" fill="#132036" stroke="#3A5FA8"/>
    <text x="75" y="35" text-anchor="middle" fill="#9CC2FF" font-family="Inter, Arial" font-size="18" font-weight="700">Execution</text>
    <text x="75" y="60" text-anchor="middle" fill="#91A5C8" font-family="Inter, Arial" font-size="13">verified mutation</text>
  </g>

  <g transform="translate(155,355)">
    <rect width="890" height="82" rx="18" fill="#0D1424" stroke="#263654"/>
    <text x="445" y="34" text-anchor="middle" fill="#F6F8FF" font-family="Inter, Arial" font-size="20" font-weight="700">Replay attack blocked</text>
    <text x="445" y="60" text-anchor="middle" fill="#AEB9D6" font-family="Inter, Arial" font-size="15">Consumed execution authority cannot be reused. Runtime fails closed.</text>
  </g>
</svg>
